<?xml version="1.0" encoding="UTF-8"?>
<svg id="Layer_1" data-name="Layer 1" xmlns="http://www.w3.org/2000/svg" viewBox="0 0 500 500">
  <defs>
    <style>
      .cls-1 {
        fill: #fff;
        stroke-width: 0px;
      }
    </style>
  </defs>
  <g id="hyA7JE.tif">
    <path class="cls-1" d="M234.74,10.12c9.98,0,19.96,0,29.94,0,11.81,1.75,23.75,2.88,35.42,5.33,141.52,29.67,224.79,180.92,174.47,316.65-48.45,130.7-196.19,193.37-322.97,135.71-73.62-33.48-118.89-91.25-136.44-170.32-2.4-10.8-3.34-21.92-4.95-32.89,0-10.31,0-20.62,0-30.94.95-6.88,1.84-13.76,2.85-20.62C27.38,115.5,103.81,34.88,200.83,15.21c11.19-2.27,22.6-3.42,33.91-5.09ZM222.39,274.01c-1.57-1.39-2.92-2.57-4.24-3.78-15.31-14.06-30.53-28.2-45.94-42.15-11.34-10.27-26.32-9.86-36.06.68-9.57,10.36-8.6,25.73,2.51,36,21.98,20.31,44.02,40.55,66.12,60.73,11.35,10.36,24.97,10.24,36.13-.41,40.16-38.35,80.28-76.74,120.34-115.2,10.83-10.39,11.37-25.93,1.59-36.09-9.84-10.22-25.18-10.12-36.11.33-22.84,21.82-45.64,43.68-68.46,65.53-11.87,11.37-23.75,22.74-35.87,34.35Z"/>
  </g>
</svg>