<?xml version="1.0" encoding="UTF-8"?>
<svg id="Layer_1" data-name="Layer 1" xmlns="http://www.w3.org/2000/svg" xmlns:xlink="http://www.w3.org/1999/xlink" viewBox="0 0 500 284">
  <defs>
    <style>
      .cls-1 {
        fill: url(#linear-gradient);
      }

      .cls-1, .cls-2 {
        stroke-width: 0px;
      }

      .cls-3 {
        opacity: .5;
      }

      .cls-2 {
        fill: #fff;
      }
    </style>
    <linearGradient id="linear-gradient" x1="41.59" y1="262.56" x2="458.83" y2="21.67" gradientUnits="userSpaceOnUse">
      <stop offset="0" stop-color="#f16334"/>
      <stop offset=".4" stop-color="#ed2e35"/>
      <stop offset=".64" stop-color="#e72d71"/>
      <stop offset="1" stop-color="#b32b5d"/>
    </linearGradient>
  </defs>
  <path class="cls-1" d="M473,97.61v-45.91c0-11.26-9.13-20.4-20.4-20.4h-95.05v5.96h-9.35v-5.96H47.81c-11.26,0-20.4,9.13-20.4,20.4v46.16c24.47.13,44.27,20,44.27,44.5s-19.8,44.37-44.27,44.5v45.68c0,11.26,9.13,20.4,20.4,20.4h300.39v-5.96h9.35v5.96h95.05c11.26,0,20.4-9.13,20.4-20.4v-45.91c-24.58,0-44.51-19.93-44.51-44.51s19.93-44.51,44.51-44.51ZM357.55,234.12h-9.35v-13.71h9.35v13.71ZM357.55,209.53h-9.35v-13.71h9.35v13.71ZM357.55,185.01h-9.35v-13.71h9.35v13.71ZM357.55,160.25h-9.35v-13.71h9.35v13.71ZM357.55,135.65h-9.35v-13.71h9.35v13.71ZM357.55,111.14h-9.35v-13.71h9.35v13.71ZM357.55,86.37h-9.35v-13.71h9.35v13.71ZM357.55,61.77h-9.35v-13.71h9.35v13.71Z"/>
  <g class="cls-3">
    <path class="cls-2" d="M157.03,112.48h-6.24c-3.14,0-5.37-.63-6.7-1.89-1.33-1.26-2-3.16-2-5.68,0-1.84.27-3.5.82-4.96.55-1.47.99-2.47,1.33-3.02h19.45c6.75,0,10.13,3.24,10.13,9.72v31.62c-.34.07-1.18.2-2.51.41-1.33.2-3.02.41-5.07.61-2.05.2-4.35.39-6.91.56-2.56.17-5.24.26-8.03.26-6.14,0-11.75-.77-16.84-2.3-5.08-1.54-9.45-3.84-13.1-6.91-3.65-3.07-6.48-6.91-8.49-11.51-2.01-4.61-3.02-9.98-3.02-16.12,0-5.73.97-10.88,2.92-15.45,1.94-4.57,4.66-8.46,8.14-11.67,3.48-3.21,7.61-5.66,12.38-7.37,4.77-1.7,9.96-2.56,15.56-2.56,2.87,0,5.41.17,7.62.51,2.22.34,4.16.75,5.83,1.23,1.67.48,3.09,1.01,4.25,1.59,1.16.58,2.11,1.11,2.87,1.59,2.87,1.77,4.3,4.06,4.3,6.86,0,1.3-.26,2.51-.77,3.63-.51,1.13-1.11,2.12-1.79,2.97-.68.85-1.4,1.6-2.15,2.25-.75.65-1.37,1.14-1.84,1.48-.68-.68-1.55-1.42-2.61-2.2-1.06-.78-2.32-1.52-3.79-2.2-1.47-.68-3.17-1.23-5.12-1.64-1.94-.41-4.11-.61-6.5-.61-3.34,0-6.34.51-9.01,1.54-2.66,1.02-4.91,2.47-6.75,4.35-1.84,1.88-3.26,4.14-4.25,6.81-.99,2.66-1.48,5.63-1.48,8.9,0,7.3,2.06,12.66,6.19,16.07,4.13,3.41,9.77,5.12,16.94,5.12,1.23,0,2.51-.03,3.84-.1,1.33-.07,2.13-.14,2.4-.2v-11.67Z"/>
    <path class="cls-2" d="M187.84,77.79c0-6.48,3.38-9.72,10.13-9.72h35c3.14,0,5.37.67,6.7,2,1.33,1.33,2,3.26,2,5.78,0,1.84-.27,3.53-.82,5.07-.55,1.53-.99,2.58-1.33,3.12h-34.59v10.95h26.71c3.14,0,5.37.67,6.7,2,1.33,1.33,2,3.26,2,5.78,0,1.84-.27,3.53-.82,5.07-.55,1.53-.99,2.58-1.33,3.12h-33.26v11.36h36.23v15.97h-53.32v-60.48Z"/>
    <path class="cls-2" d="M273.09,84.03h-16.37c-3.14,0-5.37-.67-6.7-2-1.33-1.33-2-3.26-2-5.78,0-1.84.27-3.53.82-5.07.55-1.54.99-2.57,1.33-3.12h56.39c3.14,0,5.37.67,6.7,2,1.33,1.33,2,3.26,2,5.78,0,1.84-.27,3.53-.82,5.07-.55,1.53-.99,2.58-1.33,3.12h-22.92v54.24h-17.09v-54.24Z"/>
    <path class="cls-2" d="M128.34,168.52h-14.45c-2.77,0-4.74-.59-5.91-1.76s-1.76-2.87-1.76-5.1c0-1.63.24-3.12.72-4.47.48-1.35.87-2.27,1.17-2.75h49.76c2.77,0,4.74.59,5.91,1.76,1.17,1.17,1.76,2.88,1.76,5.1,0,1.63-.24,3.12-.72,4.47-.48,1.35-.87,2.27-1.17,2.75h-20.23v47.86h-15.08v-47.86Z"/>
    <path class="cls-2" d="M172.31,216.38v-55.26c0-2.47.72-4.2,2.17-5.19,1.45-.99,3.34-1.49,5.69-1.49,1.75,0,3.3.21,4.65.63,1.35.42,2.21.69,2.57.81v60.5h-15.08Z"/>
    <path class="cls-2" d="M253.31,211.78c-.66.48-1.61,1.07-2.84,1.76-1.23.69-2.79,1.37-4.65,2.03-1.87.66-4.06,1.23-6.59,1.72-2.53.48-5.39.72-8.58.72-4.51,0-8.79-.68-12.82-2.03-4.03-1.35-7.57-3.39-10.61-6.1-3.04-2.71-5.45-6.08-7.22-10.11-1.78-4.03-2.66-8.73-2.66-14.09s.86-9.89,2.57-13.95c1.72-4.06,4.06-7.5,7.04-10.29,2.98-2.8,6.47-4.94,10.48-6.41,4-1.47,8.32-2.21,12.96-2.21,2.47,0,4.7.15,6.68.45,1.99.3,3.75.69,5.28,1.17,1.53.48,2.84.99,3.93,1.53,1.08.54,1.96,1.02,2.62,1.45,1.38,1.02,2.38,2.09,2.98,3.21.6,1.11.9,2.27.9,3.48s-.23,2.23-.68,3.25c-.45,1.02-.99,1.94-1.63,2.75-.63.81-1.26,1.51-1.9,2.08-.63.57-1.16.98-1.58,1.22-.6-.6-1.37-1.31-2.3-2.12-.93-.81-2.06-1.55-3.39-2.21-1.32-.66-2.84-1.23-4.56-1.72-1.72-.48-3.63-.72-5.73-.72-2.65,0-5.06.44-7.22,1.31-2.17.87-4.05,2.14-5.64,3.79-1.6,1.66-2.83,3.66-3.7,6.01-.87,2.35-1.31,5-1.31,7.95s.48,5.66,1.44,7.95c.96,2.29,2.29,4.2,3.97,5.73,1.68,1.53,3.69,2.69,6.01,3.48,2.32.78,4.83,1.17,7.54,1.17,3.37,0,6.28-.42,8.71-1.26,2.44-.84,4.29-1.72,5.55-2.62l6.77,11.65h.18Z"/>
    <path class="cls-2" d="M260.63,216.38v-55.26c0-2.47.72-4.2,2.17-5.19,1.45-.99,3.34-1.49,5.69-1.49,1.75,0,3.3.21,4.65.63,1.35.42,2.21.69,2.57.81v22.98c1.38-1.56,2.94-3.26,4.65-5.09,1.72-1.83,3.45-3.68,5.19-5.54,1.75-1.86,3.46-3.63,5.15-5.32,1.68-1.68,3.22-3.15,4.61-4.41,1.08-.96,2.35-1.88,3.79-2.75,1.44-.87,3.25-1.31,5.42-1.31,1.38,0,2.65.17,3.79.5,1.14.33,2.12.72,2.93,1.17.81.45,1.49.92,2.03,1.4.54.48.93.87,1.17,1.17-.3.3-.99.99-2.08,2.07-1.08,1.08-2.36,2.37-3.84,3.88-1.48,1.5-3.09,3.14-4.83,4.91-1.75,1.77-3.46,3.51-5.15,5.23-1.69,1.71-3.24,3.32-4.65,4.82-1.42,1.5-2.54,2.73-3.39,3.7,2.53,2.71,4.94,5.38,7.22,8,2.29,2.62,4.5,5.28,6.64,7.96,2.14,2.68,4.24,5.43,6.32,8.23,2.08,2.8,4.2,5.77,6.37,8.91h-18.51c-1.57-2.11-3.31-4.39-5.24-6.83-1.93-2.44-3.9-4.88-5.92-7.33-2.02-2.44-4.05-4.78-6.1-7.01-2.05-2.23-3.91-4.19-5.6-5.88v27.05h-15.08Z"/>
  </g>
</svg>