<?xml version="1.0" encoding="UTF-8"?>
<svg id="Layer_1" data-name="Layer 1" xmlns="http://www.w3.org/2000/svg" viewBox="0 0 500 500">
  <defs>
    <style>
      .cls-1, .cls-2 {
        stroke-width: 0px;
      }

      .cls-2 {
        fill: #fff;
      }
    </style>
  </defs>
  <path class="cls-1" d="M422.71,242.99v13.76h-26.19v26.35h10.48v-13.53h27.91v-13.49h15.04v14.44h-13.03v12.61h12.87v15.38h-12.96v12.35h13.05v29.31h-13.1v27.63h-15.26v-28.41h13.08v-12.48h-25.66v13.38h-12.47v26.26h11.71v15.39h-11.77v14.01h-41.69v10.99h27.02v29.29h-13.19v13.68h-15.39v-12.97h-12.6v13.06h-15.16v-27.05h-12.59v12.99h-29.31v-13.25h-13.5v-15.39h13.27v-12.1h15.05v13.28h-13.02v12.26h25.57v-67.54h13.89v-12.36h-13.31v-14h-13.75v-14h-14v-13.55h-12.33v25.6h12.9v15.39h-13.1v13.77h-27.63v26.38h11.75v-13.09h43.08v14.57h-27.33v14h-13.75v12.29h-15.41v-25.48h-11.21v13.05h-15.14v-13.46h-13.84v-29.05h13.48v-14h13.51v-54h-25.56v26.92h-15.41v-26.97h-14v-13.89h-26.07v11.96h13.1v13.75h14.01v27.92h13.54v15.39h-13.15v13.54h-15.39v-13.18h-27.67v-13.68h-12.61v12.96h-55.43v-14.61h25.48v-12.6h-13.22v-13.5h-11.21v13.06h-14.9v-14.86h13.06v-26.27h-13.16v-15.4h13.01v-12.6h-13.09v-27.4h14.68v12.85h10.95v-39.37h-10.52v13.03h-15.04v-42.08h54.77v14.46h-12.89v40.15h67.25v-11.74h-54.81v-15.38h13.14v-14h14v-13.53h15.39v13.02h12.36v-13.11h15.24v14.56h-13.11v26.38h11.8v-13.44h14.01v-69.39h13.67v-12.45h-25.74v13.14h-15.23v-42.45h13.16v-11.21h-13.01v-15.05h14.65v13.01h40.2v-12.85h15.39v13.05h12.37v26.23h12.6v-13.05h14.01v-26.41h14.95v27.25h-12.99v12.36h13.36v13.87h40.19v-13.08h15.41v68.78h14v14.01h13.53v15.08h-28.5v-26.86h-12.62v26.96h-29.05v-13.49h-27.93v-13.49h-12.6v13.09h-15.14v-13.29h-26.3v-27.64h-12.5v39.51h27.24v13.99h12.36v14.01h41.83v13.54h12.61v-12.99h14.93v14.76h-13v12.36h13.38v12.47h12.38v-25.6h15.38v12.92h12.6v-13.15h13.75v-14h14.01v-41.35h41.83v13.03h12.36v-13.13h15.23v56.33h-13.14v12.61h12.98v14.01h-27.14ZM242.5,255.55v15.63h-11.5v12.58h26.23v13.1h12.6v-13.72h13.09v-26.52h-13.05v-15.14h12.97v-24.45h-12.16v13.88h-14v11.68h-15.37v-25.57h-10.97v26.4h-13.34v12.11h25.49ZM420.97,188.81v-13.48h-24.41v26.39h11.67v15.1h-12.47v13.94h-41v11.18h13.65v13.27h12.58v-13.85h26.48v-12.34h13.96v-13.97h13.18v-26.23h-13.65ZM228.86,91.56v-26.18h-11.95c-.21,4.13-.4,7.93-.63,12.45h-13.22v26.25h27.7v41.32h10.96v-27.02h15.6v26.95h11.7v-40.27h-27.61v-13.49h-12.56ZM340.89,340.6v39.68h39.32v-39.68h-39.32ZM368.67,271.21v26.33h12.95v15.37h-12.86v11.66h38.07v-26.08h-12.5v-13.98h-13.75v-13.31h-11.91ZM366.56,311.26v-12.6h-27.74v-13.52h-12.36v13.82h-13.52v12.36h27.74v13.52h12.36v-13.57h13.52ZM298.42,243.37v41.63h-13.21v11.84h26.41v-13.71h13.04v-12.59h-13.68v-27.17h-12.56ZM203.29,189v39.67h12.11v-13.5h13.24v-26.17h-25.35ZM200.83,269.22v-38.13h-25.6v10.72h13.07v15.57h-13.04v11.85h25.57ZM326.9,396.37v24.32h25.54v-12.3h-13.52v-12.03h-12.01ZM117.3,269.39v-25.82h-11.45v25.82h11.45ZM228.77,380.48v-25.68h-11.67v25.68h11.67ZM77.84,283.02h25.62v-11.61h-25.62v11.61ZM408.94,296.88h25.57v-11.73h-25.57v11.73ZM243.42,326.85v11.8h25.57v-11.8h-25.57ZM145.55,230.96h-25.84v10.21h25.84v-10.21ZM103.59,299.17h-11.68v11.74h11.68v-11.74ZM131.2,310.99v-11.9h-11.53v11.9h11.53ZM145.29,324.83v-11.76h-11.64v11.76h11.64ZM145.42,285.37h-11.9v11.53h11.9v-11.53ZM340.76,283.04h11.77v-11.64h-11.77v11.64ZM119.55,283.04h11.76v-11.64h-11.76v11.64ZM338.64,269.38v-11.92h-11.57v11.92h11.57ZM89.7,243.46h-11.77v11.64h11.77v-11.64ZM394.42,203.08h-11.83v11.71h11.83v-11.71ZM133.71,175.05v11.92h11.43v-11.92h-11.43ZM313.18,133.32v11.92h11.43v-11.92h-11.43ZM296.83,145.41v-11.67h-11.68v11.67h11.68ZM310.74,131.5v-11.67h-11.68v11.67h11.68ZM366.75,422.94h-11.92v11.57h11.92v-11.57ZM145.29,269.19v-11.77h-11.65v11.77h11.65ZM231.01,340.75v11.68h10.29v-11.68h-10.29ZM65.34,257.3v11.78h10.27v-11.78h-10.27ZM91.98,230.7v10.53h11.43v-10.53h-11.43Z"/>
  <path class="cls-1" d="M449.98,50.3v95.67h-96.11V50.3h96.11ZM367.74,63.88v68.36h68.15V63.88h-68.15Z"/>
  <path class="cls-1" d="M146.23,50.19v95.79H50.22V50.19h96ZM132.5,64.19H63.99v67.94h68.51v-67.94Z"/>
  <path class="cls-1" d="M50.46,353.54h95.54v96.03H50.46v-96.03ZM63.98,435.8h68.4v-68.26H63.98v68.26Z"/>
  <path class="cls-1" d="M449.99,407.1v28.99h-13.37v13.87h-14.93v-14.69h12.95v-26.32h-11.84v13.14h-27.73v-14.54h11.97v-12.58h13.72v-13.71h29.18v14.65h-12.99v11.18h13.04Z"/>
  <path class="cls-1" d="M256.63,434.95v14.9h-27.39v-13.07h-12.36v13.15h-15.39v-27.12h-13.66v-15.23h42.44v27.38h26.36Z"/>
  <path class="cls-1" d="M173.32,367.15h15.03v28.67h-13.07v54h-15.25v-55.04h13.29v-27.63Z"/>
  <path class="cls-1" d="M159.72,146.52v-14.2h14.7v14.2h-14.7Z"/>
  <path class="cls-1" d="M312.49,76.59v14.32h-14.69v-14.32h14.69Z"/>
  <path class="cls-1" d="M340.11,64.76h-14.52v-14.64h14.52v14.64Z"/>
  <path class="cls-1" d="M297.83,50h14.39v14.69h-14.39v-14.69Z"/>
  <path class="cls-2" d="M242.5,255.55h-25.49v-12.11h13.34v-26.4h10.97v25.57h15.37v-11.68h14v-13.88h12.16v24.45h-12.97v15.14h13.05v26.52h-13.09v13.72h-12.6v-13.1h-26.23v-12.58h11.5v-15.63Z"/>
  <path class="cls-2" d="M420.97,188.81h13.65v26.23h-13.18v13.97h-13.96v12.34h-26.48v13.85h-12.58v-13.27h-13.65v-11.18h41v-13.94h12.47v-15.1h-11.67v-26.39h24.41v13.48Z"/>
  <path class="cls-2" d="M228.86,91.56h12.56v13.49h27.61v40.27h-11.7v-26.95h-15.6v27.02h-10.96v-41.32h-27.7v-26.25h13.22c.23-4.51.42-8.32.63-12.45h11.95v26.18Z"/>
  <path class="cls-2" d="M340.89,340.6h39.32v39.68h-39.32v-39.68ZM367.84,368.15v-14.69h-14.32v14.69h14.32Z"/>
  <path class="cls-2" d="M368.67,271.21h11.91v13.31h13.75v13.98h12.5v26.08h-38.07v-11.66h12.86v-15.37h-12.95v-26.33Z"/>
  <path class="cls-2" d="M366.56,311.26h-13.52v13.57h-12.36v-13.52h-27.74v-12.36h13.52v-13.82h12.36v13.52h27.74v12.6Z"/>
  <path class="cls-2" d="M298.42,243.37h12.56v27.17h13.68v12.59h-13.04v13.71h-26.41v-11.84h13.21v-41.63Z"/>
  <path class="cls-2" d="M203.29,189h25.35v26.17h-13.24v13.5h-12.11v-39.67Z"/>
  <path class="cls-2" d="M200.83,269.22h-25.57v-11.85h13.04v-15.57h-13.07v-10.72h25.6v38.13Z"/>
  <path class="cls-2" d="M326.9,396.37h12.01v12.03h13.52v12.3h-25.54v-24.32Z"/>
  <path class="cls-2" d="M117.3,269.39h-11.45v-25.82h11.45v25.82Z"/>
  <path class="cls-2" d="M228.77,380.48h-11.67v-25.68h11.67v25.68Z"/>
  <path class="cls-2" d="M77.84,283.02v-11.61h25.62v11.61h-25.62Z"/>
  <path class="cls-2" d="M408.94,296.88v-11.73h25.57v11.73h-25.57Z"/>
  <path class="cls-2" d="M243.42,326.85h25.57v11.8h-25.57v-11.8Z"/>
  <path class="cls-2" d="M145.55,230.96v10.21h-25.84v-10.21h25.84Z"/>
  <path class="cls-2" d="M103.59,299.17v11.74h-11.68v-11.74h11.68Z"/>
  <path class="cls-2" d="M131.2,310.99h-11.53v-11.9h11.53v11.9Z"/>
  <path class="cls-2" d="M145.29,324.83h-11.64v-11.76h11.64v11.76Z"/>
  <path class="cls-2" d="M145.42,285.37v11.53h-11.9v-11.53h11.9Z"/>
  <path class="cls-2" d="M340.76,283.04v-11.64h11.77v11.64h-11.77Z"/>
  <path class="cls-2" d="M119.55,283.04v-11.64h11.76v11.64h-11.76Z"/>
  <path class="cls-2" d="M338.64,269.38h-11.57v-11.92h11.57v11.92Z"/>
  <path class="cls-2" d="M89.7,243.46v11.64h-11.77v-11.64h11.77Z"/>
  <path class="cls-2" d="M394.42,203.08v11.71h-11.83v-11.71h11.83Z"/>
  <path class="cls-2" d="M133.71,175.05h11.43v11.92h-11.43v-11.92Z"/>
  <path class="cls-2" d="M313.18,133.32h11.43v11.92h-11.43v-11.92Z"/>
  <path class="cls-2" d="M296.83,145.41h-11.68v-11.67h11.68v11.67Z"/>
  <path class="cls-2" d="M310.74,131.5h-11.68v-11.67h11.68v11.67Z"/>
  <path class="cls-2" d="M366.75,422.94v11.57h-11.92v-11.57h11.92Z"/>
  <path class="cls-2" d="M145.29,269.19h-11.65v-11.77h11.65v11.77Z"/>
  <path class="cls-2" d="M231.01,340.75h10.29v11.68h-10.29v-11.68Z"/>
  <path class="cls-2" d="M65.34,257.3h10.27v11.78h-10.27v-11.78Z"/>
  <path class="cls-2" d="M91.98,230.7h11.43v10.53h-11.43v-10.53Z"/>
  <path class="cls-2" d="M367.74,63.88h68.15v68.36h-68.15V63.88ZM421.91,118.59v-40.65h-40.59v40.65h40.59Z"/>
  <path class="cls-2" d="M132.5,64.19v67.94H63.99v-67.94h68.51ZM77.86,77.71v40.84h40.49v-40.84h-40.49Z"/>
  <path class="cls-2" d="M63.98,435.8v-68.26h68.4v68.26H63.98ZM77.8,421.84h40.59v-40.5h-40.59v40.5Z"/>
  <path class="cls-1" d="M367.84,368.15h-14.32v-14.69h14.32v14.69Z"/>
  <path class="cls-1" d="M421.91,118.59h-40.59v-40.65h40.59v40.65Z"/>
  <path class="cls-1" d="M77.86,77.71h40.49v40.84h-40.49v-40.84Z"/>
  <path class="cls-1" d="M77.8,421.84v-40.5h40.59v40.5h-40.59Z"/>
</svg>